<?xml version="1.0" encoding="UTF-8"?>
<svg version="1.1" xmlns="http://www.w3.org/2000/svg" width="228" height="45">
<path d="M0 0 C2.31 0 4.62 0 7 0 C7.99 4.95 8.98 9.9 10 15 C11.32 10.05 12.64 5.1 14 0 C16.31 0 18.62 0 21 0 C19.88353037 4.68249562 18.76243085 9.36384848 17.63696289 14.04418945 C17.25449136 15.63763117 16.87330283 17.2313814 16.4934082 18.82543945 C15.94817085 21.1123085 15.39837856 23.39804027 14.84765625 25.68359375 C14.6778273 26.40026718 14.50799835 27.11694061 14.33302307 27.85533142 C13.11387171 32.88612829 13.11387171 32.88612829 12 34 C9.69 34 7.38 34 5 34 C4.01 29.05 3.02 24.1 2 19 C0.68 23.95 -0.64 28.9 -2 34 C-4.31 34 -6.62 34 -9 34 C-7.88353037 29.31750438 -6.76243085 24.63615152 -5.63696289 19.95581055 C-5.25449136 18.36236883 -4.87330283 16.7686186 -4.4934082 15.17456055 C-3.94817085 12.8876915 -3.39837856 10.60195973 -2.84765625 8.31640625 C-2.6778273 7.59973282 -2.50799835 6.88305939 -2.33302307 6.14466858 C-1.11387171 1.11387171 -1.11387171 1.11387171 0 0 Z " fill="#000000" transform="translate(131,5)"/>
<path d="M0 0 C2.31 0 4.62 0 7 0 C8.19088986 5.38027025 9.2919519 10.45291384 9 16 C9.66 16 10.32 16 11 16 C11.12375 14.845 11.2475 13.69 11.375 12.5 C11.90278885 8.21649625 12.88398037 4.16647328 14 0 C16.31 0 18.62 0 21 0 C18.5227227 11.38493395 15.8909894 22.71283927 13 34 C10.69 34 8.38 34 6 34 C5.79503906 33.07316406 5.59007813 32.14632812 5.37890625 31.19140625 C4.97478516 29.39509766 4.97478516 29.39509766 4.5625 27.5625 C4.29566406 26.36753906 4.02882813 25.17257813 3.75390625 23.94140625 C3.29933252 21.1295314 3.29933252 21.1295314 2 20 C0.68 24.62 -0.64 29.24 -2 34 C-3.98 34 -5.96 34 -8 34 C-7.32425641 27.02294745 -5.73473764 20.4084788 -4 13.625 C-3.72671875 12.53316406 -3.4534375 11.44132812 -3.171875 10.31640625 C-1.14074248 2.28148496 -1.14074248 2.28148496 0 0 Z " fill="#000000" transform="translate(93,5)"/>
<path d="M0 0 C2.97 0 5.94 0 9 0 C9 11.22 9 22.44 9 34 C6.69 34 4.38 34 2 34 C2 31.36 2 28.72 2 26 C-1.36852515 25.9434891 -1.36852515 25.9434891 -5 27 C-6.8544092 29.2231534 -7.78559244 31.32830337 -9 34 C-11.31 34 -13.62 34 -16 34 C-15.764021 33.50298584 -15.52804199 33.00597168 -15.28491211 32.49389648 C-10.15220075 21.68000619 -5.046022 10.8546261 0 0 Z M1 13 C-0.485 16.465 -0.485 16.465 -2 20 C-0.68 20 0.64 20 2 20 C2 17.69 2 15.38 2 13 C1.67 13 1.34 13 1 13 Z " fill="#000000" transform="translate(61,5)"/>
<path d="M0 0 C3.51934256 4.55444331 2.83120951 9.21802552 2.125 14.75 C0.54199518 21.73879787 -1.48803798 27.87608199 -6.875 32.75 C-11.18010103 34.85675157 -14.27173149 35.07983313 -18.875 33.75 C-20.5234375 32.57421875 -20.5234375 32.57421875 -21.875 30.75 C-23.31255131 21.63255744 -21.59559825 12.5949777 -16.63671875 4.8046875 C-12.06111425 -1.06001919 -7.04135918 -3.06146051 0 0 Z M-6.875 3.75 C-12.84379048 8.22659286 -14.35149005 14.66014645 -15.875 21.75 C-15.93682611 23.74904415 -15.95638051 25.75165638 -15.875 27.75 C-14.225 28.08 -12.575 28.41 -10.875 28.75 C-6.0447686 22.75385068 -4.34376516 15.59620451 -3.609375 8.00390625 C-3.69703125 7.26011719 -3.7846875 6.51632813 -3.875 5.75 C-4.865 5.09 -5.855 4.43 -6.875 3.75 Z " fill="#000000" transform="translate(184.875,5.25)"/>
</svg>
